<!-- icons.svg -->
<svg xmlns="http://www.w3.org/2000/svg" viewBox="0 0 16 16" shape-rendering="auto">
    <!-- Bitcoin Icon -->
    <symbol id="bitcoin" fill="#f7931a" viewBox="0 0 16 16">
        <svg xmlns="http://www.w3.org/2000/svg" width="16" height="16" viewBox="0 0 64 64">
            <!-- Paste the provided SVG path data here -->
            <path d="m63.033,39.744c-4.274,17.143-21.637,27.576-38.782,23.301-17.138-4.274-27.571-21.638-23.295-38.78,4.272-17.145,21.635-27.579,38.775-23.305,17.144,4.274,27.576,21.64,23.302,38.784z"/>
            <path fill="#FFF"
                  d="m46.103,27.444c0.637-4.258-2.605-6.547-7.038-8.074l1.438-5.768-3.511-0.875-1.4,5.616c-0.923-0.23-1.871-0.447-2.813-0.662l1.41-5.653-3.509-0.875-1.439,5.766c-0.764-0.174-1.514-0.346-2.242-0.527l0.004-0.018-4.842-1.209-0.934,3.75s2.605,0.597,2.55,0.634c1.422,0.355,1.679,1.296,1.636,2.042l-1.638,6.571c0.098,0.025,0.225,0.061,0.365,0.117-0.117-0.029-0.242-0.061-0.371-0.092l-2.296,9.205c-0.174,0.432-0.615,1.08-1.609,0.834,0.035,0.051-2.552-0.637-2.552-0.637l-1.743,4.019,4.569,1.139c0.85,0.213,1.683,0.436,2.503,0.646l-1.453,5.834,3.507,0.875,1.439-5.772c0.958,0.26,1.888,0.5,2.798,0.726l-1.434,5.745,3.511,0.875,1.453-5.823c5.987,1.133,10.489,0.676,12.384-4.739,1.527-4.36-0.076-6.875-3.226-8.515,2.294-0.529,4.022-2.038,4.483-5.155zm-8.022,11.249c-1.085,4.36-8.426,2.003-10.806,1.412l1.928-7.729c2.38,0.594,10.012,1.77,8.878,6.317zm1.086-11.312c-0.99,3.966-7.1,1.951-9.082,1.457l1.748-7.01c1.982,0.494,8.365,1.416,7.334,5.553z"/>
        </svg>
    </symbol>

    <!-- Apple Icon -->
    <symbol id="apple" fill="currentColor" viewBox="0 0 22.773 22.773">
        <!-- Ethereum SVG path data -->
        <path d="M15.769,0c0.053,0,0.106,0,0.162,0c0.13,1.606-0.483,2.806-1.228,3.675c-0.731,0.863-1.732,1.7-3.351,1.573    c-0.108-1.583,0.506-2.694,1.25-3.561C13.292,0.879,14.557,0.16,15.769,0z"/>
        <path d="M20.67,16.716c0,0.016,0,0.03,0,0.045c-0.455,1.378-1.104,2.559-1.896,3.655c-0.723,0.995-1.609,2.334-3.191,2.334    c-1.367,0-2.275-0.879-3.676-0.903c-1.482-0.024-2.297,0.735-3.652,0.926c-0.155,0-0.31,0-0.462,0    c-0.995-0.144-1.798-0.932-2.383-1.642c-1.725-2.098-3.058-4.808-3.306-8.276c0-0.34,0-0.679,0-1.019    c0.105-2.482,1.311-4.5,2.914-5.478c0.846-0.52,2.009-0.963,3.304-0.765c0.555,0.086,1.122,0.276,1.619,0.464    c0.471,0.181,1.06,0.502,1.618,0.485c0.378-0.011,0.754-0.208,1.135-0.347c1.116-0.403,2.21-0.865,3.652-0.648    c1.733,0.262,2.963,1.032,3.723,2.22c-1.466,0.933-2.625,2.339-2.427,4.74C17.818,14.688,19.086,15.964,20.67,16.716z"/>
    </symbol>

    <!-- Microsoft Icon -->
    <symbol id="microsoft" fill="currentColor" viewBox="0 0 21 21">
        <!-- Microsoft SVG path data -->
        <path fill="#f35325" d="M0 0h10v10H0z"/>
        <path fill="#81bc06" d="M11 0h10v10H11z"/>
        <path fill="#05a6f0" d="M0 11h10v10H0z"/>
        <path fill="#ffba08" d="M11 11h10v10H11z"/>
    </symbol>

    <!-- Ethereum Icon -->
    <symbol id="ethereum" viewBox="0 0 256 417" preserveAspectRatio="xMidYMid">
        <g>
            <polygon fill="#343434" points="127.9611 0 125.1661 9.5 125.1661 285.168 127.9611 287.958 255.9231 212.32"/>
            <polygon fill="#8C8C8C" points="127.962 0 0 212.32 127.962 287.959 127.962 154.158"/>
            <polygon fill="#3C3C3B"
                     points="127.9611 312.1866 126.3861 314.1066 126.3861 412.3056 127.9611 416.9066 255.9991 236.5866"/>
            <polygon fill="#8C8C8C" points="127.962 416.9052 127.962 312.1852 0 236.5852"/>
            <polygon fill="#141414" points="127.9611 287.9577 255.9211 212.3207 127.9611 154.1587"/>
            <polygon fill="#393939" points="0.0009 212.3208 127.9609 287.9578 127.9609 154.1588"/>
        </g>
    </symbol>

    <!-- Google Icon -->
    <symbol id="google" viewBox="0 0 24 24">
        <path d="M22.56 12.25c0-.78-.07-1.53-.2-2.25H12v4.26h5.92c-.26 1.37-1.04 2.53-2.21 3.31v2.77h3.57c2.08-1.92 3.28-4.74 3.28-8.09z"
              fill="#4285F4"/>
        <path d="M12 23c2.97 0 5.46-.98 7.28-2.66l-3.57-2.77c-.98.66-2.23 1.06-3.71 1.06-2.86 0-5.29-1.93-6.16-4.53H2.18v2.84C3.99 20.53 7.7 23 12 23z"
              fill="#34A853"/>
        <path d="M5.84 14.09c-.22-.66-.35-1.36-.35-2.09s.13-1.43.35-2.09V7.07H2.18C1.43 8.55 1 10.22 1 12s.43 3.45 1.18 4.93l2.85-2.22.81-.62z"
              fill="#FBBC05"/>
        <path d="M12 5.38c1.62 0 3.06.56 4.21 1.64l3.15-3.15C17.45 2.09 14.97 1 12 1 7.7 1 3.99 3.47 2.18 7.07l3.66 2.84c.87-2.6 3.3-4.53 6.16-4.53z"
              fill="#EA4335"/>
        <path d="M1 1h22v22H1z" fill="none"/>
    </symbol>

    <!-- Tesla Icon -->
    <symbol id="tesla" viewBox="0 0 254.58401 253.502">
        <g id="T" transform="translate(-45.84,-64.297)" style="stroke:none">
            <path d="M 173.146,317.299 208.622,117.78 c 33.815,0 44.481,3.708 46.021,18.843 0,0 22.684,-8.458 34.125,-25.636 C 244.122,90.299 199.263,89.366 199.263,89.366 l -26.176,31.882 0.059,-0.004 -26.176,-31.883 c 0,0 -44.86,0.934 -89.5,21.622 11.431,17.178 34.124,25.636 34.124,25.636 1.549,-15.136 12.202,-18.844 45.79,-18.868 l 35.762,199.548"
                  id="path35" style="fill:#e82127;fill-opacity:1;stroke:none"/>
            <path d="m 173.132,80.157 c 36.09,-0.276 77.399,5.583 119.687,24.014 5.652,-10.173 7.105,-14.669 7.105,-14.669 C 253.697,71.213 210.406,64.954 173.127,64.797 135.85,64.954 92.561,71.214 46.34,89.502 c 0,0 2.062,5.538 7.1,14.669 42.28,-18.431 83.596,-24.29 119.687,-24.014 h 0.005"
                  id="path37" style="fill:#e82127;fill-opacity:1;stroke:none"/>
        </g>
    </symbol>

    <!-- Amazon Icon -->
    <symbol id="amazon" viewBox="2.167 .438 251.038 259.969">
        <g fill="none" fill-rule="evenodd">
            <path d="m221.503 210.324c-105.235 50.083-170.545 8.18-212.352-17.271-2.587-1.604-6.984.375-3.169 4.757 13.928 16.888 59.573 57.593 119.153 57.593 59.621 0 95.09-32.532 99.527-38.207 4.407-5.627 1.294-8.731-3.16-6.872zm29.555-16.322c-2.826-3.68-17.184-4.366-26.22-3.256-9.05 1.078-22.634 6.609-21.453 9.93.606 1.244 1.843.686 8.06.127 6.234-.622 23.698-2.826 27.337 1.931 3.656 4.79-5.57 27.608-7.255 31.288-1.628 3.68.622 4.629 3.68 2.178 3.016-2.45 8.476-8.795 12.14-17.774 3.639-9.028 5.858-21.622 3.71-24.424z"
                  fill="#f90" fill-rule="nonzero"/>
            <path d="m150.744 108.13c0 13.141.332 24.1-6.31 35.77-5.361 9.489-13.853 15.324-23.341 15.324-12.952 0-20.495-9.868-20.495-24.432 0-28.75 25.76-33.968 50.146-33.968zm34.015 82.216c-2.23 1.992-5.456 2.135-7.97.806-11.196-9.298-13.189-13.615-19.356-22.487-18.502 18.882-31.596 24.527-55.601 24.527-28.37 0-50.478-17.506-50.478-52.565 0-27.373 14.85-46.018 35.96-55.126 18.313-8.066 43.884-9.489 63.43-11.718v-4.365c0-8.018.616-17.506-4.08-24.432-4.128-6.215-12.003-8.777-18.93-8.777-12.856 0-24.337 6.594-27.136 20.257-.57 3.037-2.799 6.026-5.835 6.168l-32.735-3.51c-2.751-.618-5.787-2.847-5.028-7.07 7.543-39.66 43.36-51.616 75.43-51.616 16.415 0 37.858 4.365 50.81 16.795 16.415 15.323 14.849 35.77 14.849 58.02v52.565c0 15.798 6.547 22.724 12.714 31.264 2.182 3.036 2.657 6.69-.095 8.966-6.879 5.74-19.119 16.415-25.855 22.393l-.095-.095"
                  fill="#000"/>
            <path d="m221.503 210.324c-105.235 50.083-170.545 8.18-212.352-17.271-2.587-1.604-6.984.375-3.169 4.757 13.928 16.888 59.573 57.593 119.153 57.593 59.621 0 95.09-32.532 99.527-38.207 4.407-5.627 1.294-8.731-3.16-6.872zm29.555-16.322c-2.826-3.68-17.184-4.366-26.22-3.256-9.05 1.078-22.634 6.609-21.453 9.93.606 1.244 1.843.686 8.06.127 6.234-.622 23.698-2.826 27.337 1.931 3.656 4.79-5.57 27.608-7.255 31.288-1.628 3.68.622 4.629 3.68 2.178 3.016-2.45 8.476-8.795 12.14-17.774 3.639-9.028 5.858-21.622 3.71-24.424z"
                  fill="#f90" fill-rule="nonzero"/>
            <path d="m150.744 108.13c0 13.141.332 24.1-6.31 35.77-5.361 9.489-13.853 15.324-23.341 15.324-12.952 0-20.495-9.868-20.495-24.432 0-28.75 25.76-33.968 50.146-33.968zm34.015 82.216c-2.23 1.992-5.456 2.135-7.97.806-11.196-9.298-13.189-13.615-19.356-22.487-18.502 18.882-31.596 24.527-55.601 24.527-28.37 0-50.478-17.506-50.478-52.565 0-27.373 14.85-46.018 35.96-55.126 18.313-8.066 43.884-9.489 63.43-11.718v-4.365c0-8.018.616-17.506-4.08-24.432-4.128-6.215-12.003-8.777-18.93-8.777-12.856 0-24.337 6.594-27.136 20.257-.57 3.037-2.799 6.026-5.835 6.168l-32.735-3.51c-2.751-.618-5.787-2.847-5.028-7.07 7.543-39.66 43.36-51.616 75.43-51.616 16.415 0 37.858 4.365 50.81 16.795 16.415 15.323 14.849 35.77 14.849 58.02v52.565c0 15.798 6.547 22.724 12.714 31.264 2.182 3.036 2.657 6.69-.095 8.966-6.879 5.74-19.119 16.415-25.855 22.393l-.095-.095"
                  fill="#000"/>
        </g>
    </symbol>

    <!-- Meta Icon -->
    <symbol id="facebook" viewBox="0 0 287.56 191">
        <defs>
            <linearGradient id="Grad_Logo1" x1="61" y1="117" x2="259" y2="127" gradientUnits="userSpaceOnUse">
                <stop style="stop-color:#0064e1" offset="0"/>
                <stop style="stop-color:#0064e1" offset="0.4"/>
                <stop style="stop-color:#0073ee" offset="0.83"/>
                <stop style="stop-color:#0082fb" offset="1"/>
            </linearGradient>
            <linearGradient id="Grad_Logo2" x1="45" y1="139" x2="45" y2="66" gradientUnits="userSpaceOnUse">
                <stop style="stop-color:#0082fb" offset="0"/>
                <stop style="stop-color:#0064e0" offset="1"/>
            </linearGradient>
        </defs>
        <path id="Logo0" style="fill:#0081fb"
              d="m31.06,125.96c0,10.98 2.41,19.41 5.56,24.51 4.13,6.68 10.29,9.51 16.57,9.51 8.1,0 15.51-2.01 29.79-21.76 11.44-15.83 24.92-38.05 33.99-51.98l15.36-23.6c10.67-16.39 23.02-34.61 37.18-46.96 11.56-10.08 24.03-15.68 36.58-15.68 21.07,0 41.14,12.21 56.5,35.11 16.81,25.08 24.97,56.67 24.97,89.27 0,19.38-3.82,33.62-10.32,44.87-6.28,10.88-18.52,21.75-39.11,21.75l0-31.02c17.63,0 22.03-16.2 22.03-34.74 0-26.42-6.16-55.74-19.73-76.69-9.63-14.86-22.11-23.94-35.84-23.94-14.85,0-26.8,11.2-40.23,31.17-7.14,10.61-14.47,23.54-22.7,38.13l-9.06,16.05c-18.2,32.27-22.81,39.62-31.91,51.75-15.95,21.24-29.57,29.29-47.5,29.29-21.27,0-34.72-9.21-43.05-23.09-6.8-11.31-10.14-26.15-10.14-43.06z"/>
        <path id="Logo1" style="fill:url(#Grad_Logo1)"
              d="m24.49,37.3c14.24-21.95 34.79-37.3 58.36-37.3 13.65,0 27.22,4.04 41.39,15.61 15.5,12.65 32.02,33.48 52.63,67.81l7.39,12.32c17.84,29.72 27.99,45.01 33.93,52.22 7.64,9.26 12.99,12.02 19.94,12.02 17.63,0 22.03-16.2 22.03-34.74l27.4-.86c0,19.38-3.82,33.62-10.32,44.87-6.28,10.88-18.52,21.75-39.11,21.75-12.8,0-24.14-2.78-36.68-14.61-9.64-9.08-20.91-25.21-29.58-39.71l-25.79-43.08c-12.94-21.62-24.81-37.74-31.68-45.04-7.39-7.85-16.89-17.33-32.05-17.33-12.27,0-22.69,8.61-31.41,21.78z"/>
        <path id="Logo2" style="fill:url(#Grad_Logo2)"
              d="m82.35,31.23c-12.27,0-22.69,8.61-31.41,21.78-12.33,18.61-19.88,46.33-19.88,72.95 0,10.98 2.41,19.41 5.56,24.51l-26.48,17.44c-6.8-11.31-10.14-26.15-10.14-43.06 0-30.75 8.44-62.8 24.49-87.55 14.24-21.95 34.79-37.3 58.36-37.3z"/>
    </symbol>
</svg>
